<?xml version="1.0" encoding="UTF-8" ?>
<!DOCTYPE svg PUBLIC "-//W3C//DTD SVG 1.1//EN" "http://www.w3.org/Graphics/SVG/1.1/DTD/svg11.dtd">
<svg width="500pt" height="500pt" viewBox="0 0 500 500" version="1.1" xmlns="http://www.w3.org/2000/svg">
<g id="#e3e3e3ff">
<path fill="#e3e3e3" opacity="1.00" d=" M 279.93 47.08 C 291.69 40.47 305.78 37.01 319.15 39.96 C 318.69 42.22 318.23 44.49 317.85 46.77 C 306.30 44.23 294.62 47.96 284.20 52.80 C 282.85 50.84 281.42 48.93 279.93 47.08 Z" />
<path fill="#e3e3e3" opacity="1.00" d=" M 329.90 42.92 C 333.88 44.93 337.95 46.81 341.64 49.35 C 347.34 53.00 351.67 58.29 356.41 63.03 C 354.75 64.70 353.10 66.37 351.45 68.05 C 344.96 61.01 337.57 54.53 328.84 50.44 C 329.07 47.92 329.47 45.42 329.90 42.92 Z" />
<path fill="#e3e3e3" opacity="1.00" d=" M 246.51 74.13 C 253.70 66.26 261.56 59.07 270.12 52.72 C 271.55 54.78 273.06 56.78 274.53 58.82 C 266.55 64.70 259.07 71.25 252.11 78.30 C 250.25 76.89 248.37 75.53 246.51 74.13 Z" />
<path fill="#e3e3e3" opacity="1.00" d=" M 358.50 77.06 C 360.24 75.30 361.99 73.55 363.73 71.78 C 370.46 81.23 375.93 91.49 380.98 101.92 C 378.84 103.40 376.68 104.86 374.54 106.34 C 370.43 95.97 364.62 86.36 358.50 77.06 Z" />
<path fill="#e3e3e3" opacity="1.00" d=" M 238.33 83.00 C 240.56 84.42 242.79 85.83 245.06 87.20 C 237.64 95.29 231.73 104.55 225.36 113.45 C 224.07 115.72 220.95 114.71 218.80 115.20 C 218.14 108.80 223.07 104.20 226.28 99.28 C 230.06 93.68 234.55 88.60 238.33 83.00 Z" />
<path fill="#e3e3e3" opacity="1.00" d=" M 238.21 112.22 C 241.46 108.36 249.47 108.96 250.93 114.22 C 251.09 116.49 251.58 119.15 250.15 121.11 C 242.94 130.32 234.21 138.15 225.98 146.42 C 233.50 154.10 241.16 161.63 248.78 169.21 C 252.64 172.46 252.04 180.47 246.78 181.93 C 244.27 182.15 241.31 182.58 239.29 180.72 C 230.60 174.01 223.41 165.64 215.59 157.98 C 206.91 166.50 198.36 175.15 189.79 183.78 C 186.62 187.43 179.55 187.09 177.25 182.59 C 176.80 180.29 176.58 177.75 177.41 175.52 C 185.21 165.19 195.17 156.80 204.02 147.41 C 196.87 140.42 189.81 133.33 182.74 126.27 C 180.20 124.09 180.78 120.34 181.25 117.41 C 183.12 113.61 187.88 113.17 191.47 114.44 C 200.08 120.52 206.90 128.69 214.41 136.01 C 222.44 128.18 230.30 120.17 238.21 112.22 Z" />
<path fill="#e3e3e3" opacity="1.00" d=" M 379.90 118.13 C 381.14 115.80 383.39 114.25 385.32 112.52 C 389.84 124.49 393.88 136.65 396.82 149.11 C 394.57 149.57 392.30 149.93 390.04 150.29 C 387.33 142.94 385.84 135.22 383.12 127.87 C 382.10 124.61 380.44 121.53 379.90 118.13 Z" />
<path fill="#e3e3e3" opacity="1.00" d=" M 392.29 161.13 C 394.77 160.85 397.23 160.44 399.68 159.95 C 401.88 171.24 403.99 182.54 405.64 193.92 C 403.16 194.27 400.71 194.77 398.25 195.17 C 397.21 183.69 394.97 172.33 392.29 161.13 Z" />
<path fill="#e3e3e3" opacity="1.00" d=" M 399.89 206.30 C 402.18 205.86 404.48 205.37 406.77 204.88 C 408.30 216.42 409.39 228.07 408.95 239.73 C 406.88 240.60 404.84 241.52 402.77 242.39 C 401.27 235.87 402.58 229.14 401.47 222.58 C 400.92 217.15 400.79 211.69 399.89 206.30 Z" />
<path fill="#e3e3e3" opacity="1.00" d=" M 60.09 239.99 C 62.09 239.99 64.10 240.00 66.10 240.01 C 66.30 247.91 63.62 255.46 62.65 263.23 C 60.19 262.87 57.73 262.43 55.28 261.98 C 56.75 254.62 58.27 247.27 60.09 239.99 Z" />
<path fill="#e3e3e3" opacity="1.00" d=" M 403.03 254.20 C 405.33 253.41 407.64 252.60 409.94 251.80 C 409.98 257.67 410.34 263.59 409.45 269.43 C 408.72 274.59 409.04 279.81 408.98 285.00 C 406.66 285.00 404.34 285.00 402.03 285.00 C 401.29 274.69 403.56 264.51 403.03 254.20 Z" />
<path fill="#e3e3e3" opacity="1.00" d=" M 53.24 272.89 C 55.52 273.37 57.80 273.85 60.09 274.28 C 58.76 280.18 57.82 286.16 56.73 292.12 C 54.43 291.61 52.12 291.12 49.81 290.68 C 50.58 284.68 51.89 278.77 53.24 272.89 Z" />
<path fill="#e3e3e3" opacity="1.00" d=" M 400.34 297.39 C 401.86 294.82 405.56 296.41 408.04 295.92 C 406.63 305.61 405.37 315.33 403.76 324.99 C 401.26 324.99 398.76 325.02 396.27 325.04 C 398.28 315.93 399.56 306.67 400.34 297.39 Z" />
<path fill="#e3e3e3" opacity="1.00" d=" M 47.27 301.78 C 49.76 302.05 52.24 302.38 54.72 302.79 C 53.11 311.74 51.78 320.73 50.53 329.73 C 48.05 329.88 45.57 330.01 43.09 330.10 C 44.56 320.67 46.23 311.27 47.27 301.78 Z" />
<path fill="#e3e3e3" opacity="1.00" d=" M 394.25 334.99 C 396.58 334.99 398.92 335.02 401.25 335.05 C 399.61 346.86 395.27 358.07 391.45 369.31 C 389.19 368.45 386.96 367.52 384.71 366.64 C 388.39 356.25 391.80 345.75 394.25 334.99 Z" />
<path fill="#e3e3e3" opacity="1.00" d=" M 42.20 339.99 C 44.52 339.99 46.83 340.01 49.15 340.03 C 48.77 344.37 48.03 348.67 48.02 353.03 C 47.82 354.65 48.23 356.63 46.81 357.82 C 45.10 359.56 42.39 358.82 40.21 359.22 C 41.20 352.84 40.94 346.34 42.20 339.99 Z" />
<path fill="#e3e3e3" opacity="1.00" d=" M 40.04 370.00 C 42.35 370.00 44.66 370.00 46.98 370.00 C 47.00 374.00 46.87 378.01 47.09 382.01 C 47.26 385.59 48.35 389.13 47.91 392.73 C 46.56 395.55 43.95 397.56 42.11 400.06 C 40.78 390.09 39.39 380.09 40.04 370.00 Z" />
<path fill="#e3e3e3" opacity="1.00" d=" M 380.06 376.98 C 382.40 377.97 384.75 378.93 387.06 379.98 C 382.61 389.10 377.33 397.80 371.62 406.18 C 370.06 404.06 368.46 401.98 366.79 399.97 C 371.85 392.68 376.30 385.02 380.06 376.98 Z" />
<path fill="#e3e3e3" opacity="1.00" d=" M 46.48 412.08 C 48.23 410.30 49.99 408.54 51.74 406.77 C 55.25 412.75 59.32 418.52 65.42 422.11 C 64.60 424.41 63.71 426.68 62.84 428.96 C 55.79 425.17 49.82 419.42 46.48 412.08 Z" />
<path fill="#e3e3e3" opacity="1.00" d=" M 342.17 423.06 C 348.34 418.81 354.41 414.34 359.66 408.96 C 361.00 410.92 362.40 412.85 363.88 414.72 C 357.89 421.25 350.76 426.53 343.22 431.12 C 342.97 428.41 342.64 425.73 342.17 423.06 Z" />
<path fill="#e3e3e3" opacity="1.00" d=" M 198.72 420.67 C 202.12 420.15 205.56 419.95 208.99 419.90 C 208.99 422.59 209.00 425.28 209.00 427.98 C 199.00 428.02 189.00 428.02 179.00 427.97 C 179.00 425.65 179.00 423.33 179.00 421.02 C 185.57 420.87 192.17 421.35 198.72 420.67 Z" />
<path fill="#e3e3e3" opacity="1.00" d=" M 220.00 421.02 C 231.71 420.67 243.35 422.21 255.00 423.20 C 255.01 425.49 254.99 427.79 255.00 430.08 C 243.30 429.80 231.72 427.55 220.00 427.96 C 220.00 425.65 220.00 423.33 220.00 421.02 Z" />
<path fill="#e3e3e3" opacity="1.00" d=" M 141.72 424.28 C 150.76 423.02 159.86 421.96 169.00 421.97 C 169.00 424.27 169.00 426.58 169.01 428.88 C 160.31 429.13 151.65 430.08 143.03 431.16 C 142.54 428.87 142.11 426.58 141.72 424.28 Z" />
<path fill="#e3e3e3" opacity="1.00" d=" M 104.65 427.26 C 113.02 426.54 121.38 425.75 129.75 425.03 C 131.11 427.06 131.19 429.59 131.80 431.90 C 123.92 432.72 116.03 433.43 108.13 434.16 C 106.96 431.86 105.81 429.56 104.65 427.26 Z" />
<path fill="#e3e3e3" opacity="1.00" d=" M 265.04 424.82 C 272.35 425.44 279.54 426.96 286.76 428.19 C 289.98 428.92 293.97 428.94 295.94 432.08 C 298.25 434.31 296.62 437.84 296.77 440.62 C 293.47 439.22 291.02 436.10 287.32 435.69 C 279.90 434.26 272.48 432.75 264.99 431.74 C 264.99 429.43 265.01 427.12 265.04 424.82 Z" />
<path fill="#e3e3e3" opacity="1.00" d=" M 76.27 425.93 C 81.71 427.03 87.27 427.12 92.81 427.04 C 93.59 429.35 94.40 431.65 95.21 433.95 C 87.99 434.18 80.73 434.21 73.64 432.66 C 74.47 430.40 75.38 428.17 76.27 425.93 Z" />
<path fill="#e3e3e3" opacity="1.00" d=" M 309.12 433.23 C 316.81 432.14 324.59 431.06 331.87 428.20 C 332.13 430.73 332.57 433.24 333.03 435.74 C 324.74 437.84 316.38 440.26 307.74 440.07 C 308.16 437.78 308.64 435.51 309.12 433.23 Z" />
</g>
<g id="#b42b2dff">
<path fill="#b42b2d" opacity="1.00" d=" M 118.60 154.73 C 126.37 151.58 131.59 144.35 139.33 141.16 C 140.79 140.58 142.83 140.51 143.66 142.11 C 148.48 148.32 151.81 155.49 155.71 162.29 C 158.26 166.45 154.02 170.85 154.72 175.20 C 156.35 176.94 158.42 178.20 159.98 180.00 C 163.29 185.00 164.83 191.76 161.36 197.11 C 164.49 201.89 170.69 203.64 173.16 208.92 C 176.86 216.22 179.59 223.95 182.42 231.61 C 183.08 233.95 184.55 236.65 183.01 238.97 C 181.83 241.54 179.03 244.56 181.37 247.35 C 183.89 248.93 187.01 249.12 189.64 250.50 C 191.95 253.02 189.33 256.37 188.56 259.04 C 191.28 260.63 194.43 261.96 196.12 264.79 C 198.12 267.99 199.74 271.42 201.12 274.93 C 202.99 279.35 201.20 284.09 200.33 288.53 C 207.35 290.85 211.99 296.92 216.16 302.67 C 219.73 309.79 224.03 316.50 227.40 323.73 C 231.80 329.57 234.56 336.44 239.11 342.17 C 245.05 337.07 250.05 331.00 255.09 325.04 C 261.08 316.71 265.21 307.22 270.51 298.45 C 279.41 284.38 284.33 268.33 291.45 253.38 C 294.13 248.03 298.61 243.42 299.17 237.19 C 299.96 230.59 302.98 224.64 305.72 218.69 C 307.75 214.42 308.65 209.49 311.92 205.92 C 313.58 204.04 315.33 202.24 317.07 200.42 C 315.99 198.27 313.77 196.16 314.47 193.56 C 315.51 189.27 319.92 187.34 323.12 184.89 C 321.77 182.32 320.02 179.85 319.38 176.98 C 319.67 171.13 323.11 166.08 326.44 161.49 C 330.64 155.38 336.88 151.18 342.44 146.44 C 344.71 144.27 347.86 143.92 350.85 143.73 C 350.64 148.12 350.53 152.52 350.69 156.92 C 353.46 157.23 356.30 157.38 358.96 158.31 C 360.43 163.88 359.02 169.85 355.37 174.28 C 358.60 182.83 357.54 192.05 357.89 200.99 C 357.92 207.00 358.37 213.02 358.01 219.04 C 357.87 224.48 352.34 227.76 351.60 232.96 C 351.74 236.42 356.05 236.80 358.49 238.05 C 359.29 248.99 357.80 259.94 358.42 270.89 C 358.89 276.66 360.78 282.22 361.19 288.01 C 361.87 296.25 362.22 304.52 363.24 312.74 C 364.06 318.63 362.40 324.75 364.44 330.48 C 366.65 337.43 366.52 344.81 366.83 352.03 C 367.49 360.76 361.53 370.32 352.61 371.95 C 348.32 373.28 344.44 375.73 339.96 376.50 C 340.33 369.34 341.33 362.22 341.39 355.04 C 341.57 346.83 344.78 338.79 343.43 330.54 C 341.62 319.77 341.97 308.81 340.71 297.98 C 340.68 285.67 340.43 273.35 340.33 261.04 C 340.07 254.19 338.34 247.44 338.84 240.56 C 339.21 236.04 337.49 231.75 336.49 227.42 C 334.75 220.75 335.85 213.74 334.13 207.06 C 332.38 207.61 330.63 208.15 328.89 208.71 C 328.63 212.56 328.35 216.65 325.85 219.81 C 321.82 225.10 319.39 231.32 316.11 237.06 C 310.97 245.66 310.15 256.17 304.61 264.58 C 301.95 267.94 298.74 270.98 297.08 275.02 C 291.07 289.89 281.47 302.88 274.16 317.09 C 269.84 324.61 266.77 333.21 260.05 339.04 C 257.54 341.48 254.51 343.52 252.67 346.56 C 252.17 349.23 252.73 351.96 252.86 354.66 C 250.37 356.44 247.49 358.09 246.21 361.03 C 243.82 365.77 242.63 371.97 237.33 374.43 C 234.96 375.44 231.54 376.96 229.55 374.49 C 226.01 371.09 225.35 365.99 223.14 361.82 C 221.43 358.59 217.04 357.93 215.50 354.56 C 213.59 350.40 212.41 345.90 210.02 341.96 C 206.63 336.38 204.79 330.05 201.59 324.37 C 199.22 320.66 201.92 316.41 201.54 312.43 C 200.63 310.19 198.60 308.69 197.04 306.93 C 194.59 304.52 192.91 301.49 191.45 298.42 C 184.98 284.99 178.04 271.79 171.41 258.44 C 169.81 255.44 169.37 252.05 169.19 248.71 C 169.02 244.92 167.42 241.44 165.86 238.06 C 164.03 237.47 161.79 237.16 160.76 235.30 C 156.56 229.00 153.63 221.97 151.14 214.85 C 150.44 211.94 147.21 211.43 144.87 210.35 C 143.17 212.29 141.38 214.14 139.55 215.95 C 141.45 223.50 140.96 231.37 139.85 238.99 C 139.40 242.07 137.73 244.81 137.17 247.86 C 137.84 251.29 140.00 254.35 139.97 257.94 C 140.09 265.98 138.98 273.97 138.62 281.99 C 138.46 291.68 139.25 301.36 139.25 311.05 C 139.26 315.56 137.92 320.03 138.54 324.55 C 138.95 327.84 139.53 331.11 139.91 334.41 C 137.67 335.64 135.13 336.57 133.40 338.54 C 132.64 340.34 132.45 342.31 132.17 344.23 C 134.25 345.09 136.34 345.94 138.42 346.80 C 138.47 351.21 139.92 356.30 137.28 360.21 C 132.54 364.64 126.50 367.39 121.60 371.66 C 119.00 374.10 115.52 374.95 112.05 375.05 C 111.42 371.64 111.42 368.12 112.79 364.89 C 115.03 359.16 114.22 352.94 114.37 346.95 C 114.49 338.58 116.87 330.43 116.93 322.07 C 117.05 315.39 115.99 308.69 117.03 302.05 C 117.59 298.39 119.70 295.27 121.49 292.13 C 120.43 289.37 119.04 286.69 118.57 283.75 C 118.53 280.32 120.76 277.01 119.52 273.56 C 117.18 266.22 118.82 258.54 118.90 251.03 C 119.27 242.11 118.21 233.22 118.17 224.31 C 120.17 224.74 122.17 225.16 124.17 225.60 C 124.80 224.16 125.40 222.70 126.02 221.26 C 123.34 220.70 120.63 220.26 117.94 219.77 C 117.84 217.61 117.68 215.43 117.89 213.27 C 119.38 211.47 121.91 210.99 123.93 209.93 C 123.38 206.09 120.21 203.69 118.34 200.54 C 116.89 196.33 119.06 191.92 118.42 187.60 C 117.70 182.06 116.63 176.55 116.60 170.94 C 116.71 166.56 114.45 162.59 114.17 158.28 C 114.83 156.34 116.95 155.62 118.60 154.73 Z" />
</g>
</svg>
